<svg xmlns="http://www.w3.org/2000/svg" xmlns:xlink="http://www.w3.org/1999/xlink" width="64" height="64" viewBox="0 0 64 64">
  <defs>
    <rect id="bot-icon-a" width="56" height="56" x="0" y="0" rx="28"/>
  </defs>
  <g fill="none" fill-rule="evenodd" transform="scale(-1 1) rotate(16 -2.57 -173.166)">
    <rect width="56" height="56" fill="#BBDCFE" fill-rule="nonzero" rx="28"/>
    <mask id="bot-icon-b" fill="#fff">
      <use xlink:href="#bot-icon-a"/>
    </mask>
    <g fill-rule="nonzero" mask="url(#bot-icon-b)">
      <g transform="translate(-2 7)">
        <path fill="#0053BF" d="M11.55906,30.2056 C11.55906,30.2056 3.73105,33.8185 5.68805,43.1519 C1.924585,44.8079 2.0751099,44.2057 2.0751099,44.2057 C2.225649,43.9046 1.9245757,43.3025 1.774037,43.0014 C1.623498,41.9476 1.623498,40.8938 1.774037,39.8401 C2.0751145,36.8293 2.978343,33.9691 5.08589,31.5604 C6.74181,29.754 8.69883,27.4959 11.25799,27.0443 C12.1612,29.1518 11.55906,30.2056 11.55906,30.2056 Z"/>
        <polygon fill="#FFF" points="42.421 29.302 43.474 48.421 20.894 29.603"/>
        <polygon fill="#0053BF" points="42.42 29.302 42.119 29.302 43.173 47.819 21.646 29.904 42.42 29.604 42.42 29.302 42.119 29.302 42.42 29.302 42.42 29.001 20.141 29.302 43.775 49.023 42.721 29.001 42.42 29.001"/>
        <path fill="#0053BF" d="M9.15039,54.1413 C8.54823,54.2918 7.94608,53.9907 7.645,53.3886 L6.44071,49.9262 C6.29017,49.324 6.59124,48.7219 7.1934,48.4208 C7.79556,48.2703 8.39771,48.5713 8.69879,49.1735 L9.90308,52.6359 C10.05362,53.238 9.75254,53.8402 9.15039,54.1413 Z"/>
        <path fill="#0053BF" d="M9.00068,47.9692 C8.54906,50.2272 6.44151,51.7326 4.03289,51.4316 C1.774809,50.9799 0.26942,48.8724 0.57049,46.4638 C1.022111,44.2057 3.12966,42.7003 5.53828,43.0014 C7.9469,43.3025 9.45229,45.7111 9.00068,47.9692 Z"/>
        <path fill="#FFF" d="M10.2041,28.8507 C10.35464,32.1626 13.0643,34.7217 16.2257,34.5712 C19.387,34.4207 21.9461,31.711 21.7956,28.3991 C21.645,25.0872 18.9353,22.5281 15.774,22.6786 C12.6127,22.8292 10.2041,25.5389 10.2041,28.8507 Z"/>
        <path fill="#0053BF" d="M10.20568,28.8508 L9.60352,28.8508 C9.75405,32.3131 12.6143,35.0228 16.0767,35.0228 C16.2272,35.0228 16.2272,35.0228 16.3778,35.0228 C19.8402,34.8723 22.5499,32.0121 22.5499,28.5497 C22.5499,28.3991 22.5499,28.3991 22.5499,28.2486 C22.3993,24.7862 19.5391,22.0765 16.0767,22.0765 C15.9261,22.0765 15.9262,22.0765 15.7756,22.0765 C12.3132,22.227 9.60352,25.0873 9.60352,28.5497 C9.60352,28.7002 9.60352,28.7002 9.60352,28.8508 L10.20568,28.8508 L10.80783,28.8508 C10.80783,28.7002 10.80783,28.7002 10.80783,28.5497 C10.80783,25.6894 13.0659,23.2808 15.7756,23.2808 L15.9261,23.2808 C18.7864,23.2808 21.0445,25.5389 21.195,28.3991 C21.195,28.5497 21.195,28.5497 21.195,28.7002 C21.195,31.5604 18.9369,33.9691 16.2272,33.9691 L16.0767,33.9691 C13.2165,33.9691 10.95837,31.711 10.80783,28.8508 L10.20568,28.8508 Z"/>
        <path fill="#FFF" d="M16.5276,25.6894 C16.5276,25.6894 8.39852,30.8078 13.0652,51.4316 C14.8717,59.2596 20.2911,68.2919 29.6245,66.4854 C39.7106,64.3779 43.9257,52.0337 45.5816,43.1519"/>
        <path fill="#0053BF" d="M16.2259,25.2378 C16.2259,25.2378 14.871,26.1411 13.5162,28.3991 C12.3119,30.6572 10.95703,34.2702 10.95703,39.8401 C10.95703,43.0014 11.40865,46.9154 12.4624,51.5821 C13.3657,55.1951 14.871,59.1091 17.2797,62.1198 C18.484,63.6252 19.8388,64.9801 21.4947,65.8833 C23.1507,66.7865 24.9571,67.3887 27.0647,67.3887 C27.9679,67.3887 28.7206,67.2382 29.6238,67.0876 C32.183,66.4855 34.4411,65.2812 36.3981,63.6252 C39.2583,61.2166 41.3659,57.7542 42.8713,54.1413 C44.3766,50.5283 45.4304,46.6143 46.0326,43.3025 L44.8283,43.152 C44.0756,47.5176 42.5702,52.7864 40.1615,57.1521 C38.9572,59.4101 37.4518,61.3671 35.6454,62.8725 C33.8389,64.3779 31.8819,65.5822 29.3228,66.0338 C28.4195,66.1844 27.6668,66.3349 26.9141,66.3349 C25.1077,66.3349 23.4517,65.8833 21.9463,64.9801 C19.6883,63.7758 17.8818,61.6682 16.527,59.2596 C15.1721,56.851 14.1183,54.1413 13.5162,51.4316 C12.4624,46.9154 12.0108,43.0014 12.0108,39.8401 C12.0108,34.4207 13.2151,31.1088 14.4194,29.0013 C15.0216,27.9475 15.6237,27.3454 16.0753,26.8938 C16.2259,26.7432 16.527,26.5927 16.527,26.4421 L16.6775,26.2916 L16.527,26.1411 L16.6775,26.2916 L16.527,26.1411 L16.6775,26.2916 L16.2259,25.2378 Z"/>
        <path fill="#EAEAEA" d="M43.4742 31.8615C46.3344 31.711 48.7431 33.668 49.3452 36.3777 48.7431 36.2271 47.9904 36.3777 47.6893 37.1304 46.6355 39.0874 44.528 40.7433 45.5818 43.1519L45.5818 43.3025C45.2807 43.453 44.9796 43.453 44.6785 43.6035L44.8291 43.6035C44.8291 43.6035 43.3237 51.8832 35.9473 54.2918 41.8183 48.7219 42.2699 44.9584 42.1194 43.453 39.7107 42.8508 37.7537 40.5928 37.6032 37.8831 37.7537 34.7218 40.1624 32.0121 43.4742 31.8615zM41.2050607 26.7432C41.2050607 26.7432 43.325211 27.3453 42.5679929 29.3023 41.8107748 30.3561 40.7506493 31.2593 39.6906245 31.711 34.6930051 34.1196 27.8780421 33.0658 23.0319267 30.9583 20.9117764 30.055 18.4886181 28.8507 17.7314 26.4421 17.7314 26.4421 27.8780421 22.9797 41.2050607 26.7432z"/>
        <path fill="#FFF" d="M12.3123,16.5066 C12.6134,24.4851 20.7424,30.6572 30.2264,30.2056 C39.8609,29.754 47.3878,22.9798 46.9362,15.0012 C46.4846,7.0226 38.506,0.85055 29.0221,1.30217 C19.3876,1.75379 11.86066,8.528 12.3123,16.5066 Z"/>
        <path fill="#0053BF" d="M12.3121,16.5066 L11.70996,16.5066 C11.8605,20.5711 13.968,24.184 17.1293,26.7432 C20.2907,29.3024 24.6563,30.8077 29.323,30.8077 C29.6241,30.8077 29.9251,30.8077 30.2262,30.8077 C35.0435,30.6572 39.4091,28.8507 42.4199,26.141 C45.5812,23.4313 47.5382,19.6679 47.5382,15.6033 C47.5382,15.4528 47.5382,15.3022 47.5382,15.0012 C47.3876,10.9366 45.2801,7.3237 42.1188,4.7645 C38.9575,2.20537 34.5918,0.69998 29.9251,0.69998 C29.6241,0.69998 29.323,0.69998 29.0219,0.69998 C24.2047,0.85052 19.839,2.65698 16.8283,5.3667 C13.667,8.0764 11.70996,11.8399 11.70996,15.9044 C11.70996,16.0549 11.70996,16.2055 11.70996,16.5066 L12.3121,16.5066 L12.9143,16.5066 C12.9143,16.356 12.9143,16.2055 12.9143,16.0549 C12.9143,12.442 14.7207,8.9796 17.581,6.4205 C20.4412,3.8613 24.5057,2.20537 29.1724,2.05483 C29.4735,2.05483 29.7746,2.05483 30.0757,2.05483 C34.5919,2.05483 38.6564,3.5602 41.5166,5.8183 C44.5274,8.2269 46.3339,11.5388 46.4844,15.1517 C46.4844,15.3022 46.4844,15.4528 46.4844,15.6033 C46.4844,19.2163 44.678,22.6786 41.8177,25.2378 C38.9575,27.797 34.8929,29.4529 30.2262,29.6034 C29.9251,29.6034 29.6241,29.6034 29.323,29.6034 C24.8068,29.6034 20.7423,28.098 17.882,25.84 C14.8713,23.4313 13.0648,20.1195 12.9143,16.5066 L12.3121,16.5066 Z"/>
        <path fill="#FFF" d="M37.452,18.313 C37.6025,22.2271 40.3123,25.2378 43.323,25.0873 C46.4843,24.9368 48.7424,21.7754 48.5919,17.8614 C48.4413,13.9474 45.7316,10.9366 42.7209,11.0872 C39.7101,11.3883 37.3015,14.5496 37.452,18.313 Z"/>
        <path fill="#0053BF" d="M37.4518 18.313L36.8496 18.313C37.0001 20.27 37.6023 22.0765 38.8066 23.4313 39.8604 24.7862 41.5163 25.5389 43.1722 25.5389L43.3228 25.5389C44.9787 25.5389 46.4841 24.6357 47.5378 23.2808 48.5916 21.926 49.1938 20.1195 49.1938 18.1625 49.1938 18.0119 49.1938 17.8614 49.1938 17.7109 49.0432 15.7539 48.4411 13.9474 47.2368 12.5925 46.183 11.2377 44.5271 10.485 42.8712 10.485L42.7206 10.485C41.0647 10.485 39.5593 11.3882 38.5055 12.7431 37.4518 14.0979 36.8496 15.9044 36.8496 17.8614 36.8496 18.0119 36.8496 18.1625 36.8496 18.313L37.4518 18.313 38.0539 18.313C38.0539 18.1625 38.0539 18.0119 38.0539 18.0119 38.0539 16.356 38.6561 14.7001 39.4088 13.6463 40.312 12.5925 41.5163 11.8399 42.7206 11.8399L42.8712 11.8399C44.226 11.8399 45.4303 12.442 46.3336 13.6463 47.2368 14.7001 47.8389 16.356 47.9895 18.0119 47.9895 18.1625 47.9895 18.313 47.9895 18.313 47.9895 19.969 47.3873 21.6249 46.6346 22.6786 45.7314 23.7324 44.5271 24.4851 43.3228 24.4851L43.1722 24.4851C41.8174 24.4851 40.6131 23.883 39.7098 22.6786 38.8066 21.6249 38.2045 19.969 38.0539 18.313L37.4518 18.313zM18.635 8.6786C18.635 8.6786 19.8393 14.7001 28.2695 11.8399 31.5814 10.9366 35.1943 12.2915 35.6459 16.5066 35.7964 18.7647 35.0437 24.0335 29.4738 25.9905 26.7641 26.5927 20.7425 26.7432 16.0758 22.0765 13.8178 19.3668 12.9145 16.5066 14.2694 12.141 14.8715 10.1839 17.1296 5.9689 18.635 8.6786z"/>
        <path fill="#FFF" d="M22.5494,19.2163 C22.2483,21.1733 22.6999,22.8292 23.4526,22.8292 C24.2053,22.9797 24.958,21.4743 25.2591,19.5173 C25.5602,17.5603 25.1085,15.9044 24.3558,15.9044 C23.6032,15.7539 22.8505,17.2593 22.5494,19.2163 Z"/>
        <path fill="#0053BF" d="M22.5473,19.2163 L22.2463,19.2163 C22.2463,19.6679 22.0957,19.969 22.0957,20.4206 C22.0957,21.1733 22.2462,21.7754 22.3968,22.2271 C22.5473,22.5281 22.5473,22.6787 22.6978,22.8292 C22.8484,22.9798 22.9989,23.1303 23.3,23.1303 L23.4505,23.1303 C23.7516,23.1303 24.0527,22.9798 24.2032,22.8292 C24.5043,22.5281 24.8054,22.0765 24.9559,21.4744 C25.1065,20.8722 25.4076,20.2701 25.4076,19.5174 C25.4076,19.0657 25.4076,18.7647 25.4076,18.3131 C25.4076,17.5604 25.257,16.9582 25.1065,16.356 C24.9559,16.055 24.9559,15.9044 24.8054,15.7539 C24.6549,15.6034 24.5043,15.4528 24.2032,15.4528 L24.0527,15.4528 C23.7516,15.4528 23.4506,15.6034 23.3,15.7539 C22.9989,16.055 22.6979,16.5066 22.5473,17.1087 C22.3968,17.7109 22.0957,18.3131 22.0957,19.0657 L22.5473,19.2163 L22.8484,19.2163 C22.9989,18.313 23.1495,17.5604 23.4505,16.9582 C23.6011,16.6571 23.7516,16.5066 23.9022,16.356 C24.0527,16.2055 24.2032,16.2055 24.2032,16.2055 C24.2032,16.2055 24.3538,16.2055 24.3538,16.356 C24.5043,16.5066 24.6549,16.8077 24.6549,17.1087 C24.8054,17.4098 24.8054,18.012 24.8054,18.4636 C24.8054,18.7647 24.8054,19.2163 24.8054,19.5174 C24.6549,20.4206 24.5043,21.1733 24.2032,21.7754 C24.0527,22.0765 23.9022,22.2271 23.7516,22.3776 C23.6011,22.5281 23.4505,22.5281 23.4505,22.5281 C23.4505,22.5281 23.3,22.5281 23.3,22.3776 C23.1495,22.2271 22.9989,21.926 22.9989,21.6249 C22.8484,21.3238 22.8484,20.7217 22.8484,20.2701 C22.8484,19.969 22.8484,19.5174 22.8484,19.2163 L22.5473,19.2163 Z"/>
        <path fill="#FFF" d="M15.1724,16.0549 C14.8714,18.0119 15.323,19.6679 16.0757,19.6679 C16.8284,19.8184 17.5811,18.313 17.8821,16.356 C18.1832,14.399 17.7316,12.7431 16.9789,12.7431 C16.2262,12.5925 15.323,14.0979 15.1724,16.0549 Z"/>
        <path fill="#0053BF" d="M15.1723 16.055L14.8712 16.055C14.8712 16.5066 14.7207 16.8077 14.7207 17.2593 14.7207 18.012 14.8712 18.6141 15.0218 19.0657 15.1723 19.3668 15.1723 19.5173 15.3228 19.6679 15.4734 19.8184 15.6239 19.969 15.925 19.969L16.0755 19.969C16.3766 19.969 16.6777 19.8184 16.8282 19.6679 17.1293 19.3668 17.4304 18.9152 17.5809 18.313 17.7315 17.7109 18.0326 17.1087 18.0326 16.356 18.0326 15.9044 18.0326 15.6033 18.0326 15.1517 18.0326 14.399 17.882 13.7969 17.7315 13.1947 17.5809 12.8936 17.5809 12.7431 17.4304 12.5926 17.2798 12.442 17.1293 12.2915 16.8282 12.2915L16.6777 12.2915C16.3766 12.2915 16.0755 12.442 15.925 12.5926 15.6239 12.8936 15.3228 13.3453 15.1723 13.9474 15.0218 14.5496 14.7207 15.1517 14.7207 15.9044L15.1723 16.055 15.4734 16.055C15.6239 15.1517 15.7745 14.399 16.0755 13.7969 16.2261 13.4958 16.3766 13.3453 16.5272 13.1947 16.6777 13.0442 16.8282 13.0442 16.8282 13.0442 16.8282 13.0442 16.9788 13.0442 16.9788 13.1947 17.1293 13.3453 17.2799 13.6463 17.2799 13.9474 17.4304 14.2485 17.4304 14.8506 17.4304 15.3023 17.4304 15.6033 17.4304 16.055 17.4304 16.356 17.2798 17.2593 17.1293 18.012 16.8282 18.6141 16.6777 18.9152 16.5272 19.0657 16.3766 19.2163 16.2261 19.3668 16.0755 19.3668 16.0755 19.3668 16.0755 19.3668 15.925 19.3668 15.925 19.2163 15.7745 19.0657 15.6239 18.7647 15.6239 18.4636 15.4734 18.1625 15.4734 17.5603 15.4734 17.1087 15.4734 16.8076 15.4734 16.356 15.4734 16.055L15.1723 16.055zM42.8709 41.0444C42.8709 41.0444 45.8817 50.3778 36.0967 54.4424 37.6021 56.3994 38.2042 56.851 37.9031 58.2058 39.1075 57.9048 47.086 53.8402 46.6344 44.6573 46.4839 42.2487 46.0322 41.1949 46.0322 41.1949 46.0322 41.1949 43.3225 41.1949 42.8709 41.0444z"/>
        <path fill="#FFF" d="M44.629,41.3467 C47.8689,41.2138 50.3875,38.4796 50.2546,35.2397 C50.1217,31.9998 47.3875,29.4811 44.1476,29.6141 C40.9077,29.747 38.389,32.4812 38.522,35.7211 C38.6549,38.961 41.3891,41.4797 44.629,41.3467 Z"/>
        <path fill="#0053BF" d="M38.6559,35.625 L38.0537,35.625 C38.2042,39.0874 41.0645,41.7971 44.5269,41.7971 C44.6774,41.7971 44.6774,41.7971 44.828,41.7971 C48.2903,41.6465 51,38.7863 51,35.3239 C51,35.1734 51,35.1734 51,35.0228 C50.8495,31.5604 47.9893,28.8508 44.5269,28.8508 C44.3763,28.8508 44.3763,28.8508 44.2258,28.8508 C40.7634,29.0013 38.0537,31.8615 38.0537,35.3239 C38.0537,35.4745 38.0537,35.4745 38.0537,35.625 L38.6559,35.625 L39.258,35.625 C39.258,35.4745 39.258,35.4745 39.258,35.3239 C39.258,32.4637 41.5161,30.0551 44.2258,30.0551 L44.3763,30.0551 C47.2366,30.0551 49.4947,32.3131 49.6452,35.1734 C49.6452,35.3239 49.6452,35.3239 49.6452,35.4745 C49.6452,38.3347 47.3871,40.7433 44.6774,40.7433 L44.5269,40.7433 C41.6666,40.7433 39.4085,38.4852 39.258,35.625 L38.6559,35.625 Z"/>
      </g>
    </g>
  </g>
</svg>
