<?xml version="1.0" encoding="UTF-8"?>
<svg width="64px" height="64px" viewBox="0 0 256 256" version="1.1" xmlns="http://www.w3.org/2000/svg" xmlns:xlink="http://www.w3.org/1999/xlink">
    <!-- Generator: Sketch 60 (88103) - https://sketch.com -->
    <title>Artboard</title>
    <desc>Created with Sketch.</desc>
    <defs>
        <circle id="path-1" cx="127.2832" cy="127.2832" r="127.2832"></circle>
    </defs>
    <g id="Artboard" stroke="none" stroke-width="1" fill="none" fill-rule="evenodd">
        <circle id="Oval" fill="#70A0FE" fill-rule="nonzero" cx="127.2832" cy="127.2832" r="127.2832"></circle>
        <circle id="Oval" fill="#FFA81E" fill-rule="nonzero" cx="127.2832" cy="127.2832" r="127.2832"></circle>
        <g id="Group">
            <mask id="mask-2" fill="white">
                <use xlink:href="#path-1"></use>
            </mask>
            <use id="Mask" fill="#70A0FE" fill-rule="nonzero" opacity="0" xlink:href="#path-1"></use>
            <g mask="url(#mask-2)" fill-rule="nonzero">
                <g transform="translate(42.666667, 27.306667)">
                    <path d="M11.9466667,76.6805333 C6.21226667,76.6805333 1.57013333,86.2208 1.57013333,97.9797333 C1.57013333,109.738667 6.28053333,119.261867 11.9466667,119.261867 L24.3712,119.261867 L24.3712,76.6805333 L11.9466667,76.6805333 Z" id="Path" fill="#FEFCFD"></path>
                    <path d="M34.816,97.9797333 C34.816,109.738667 30.1738667,119.261867 24.4394667,119.261867 C18.7050667,119.261867 14.0629333,109.738667 14.0629333,97.9797333 C14.0629333,86.2208 18.7733333,76.6805333 24.4394667,76.6805333 C30.1056,76.6805333 34.816,86.2208 34.816,97.9797333 Z" id="Path" fill="#F0E6E7"></path>
                    <path d="M157.218133,76.6805333 C162.952533,76.6805333 167.594667,86.2208 167.594667,97.9797333 C167.594667,109.738667 162.952533,119.261867 157.218133,119.261867 L144.7936,119.261867 L144.7936,76.6805333 L157.218133,76.6805333 Z" id="Path" fill="#FEFCFD"></path>
                    <path d="M134.417067,97.9797333 C134.417067,109.738667 139.0592,119.261867 144.7936,119.261867 C150.528,119.261867 155.170133,109.738667 155.170133,97.9797333 C155.170133,86.2208 150.510933,76.6805333 144.7936,76.6805333 C139.076267,76.6805333 134.417067,86.2208 134.417067,97.9797333 Z" id="Path" fill="#F0E6E7"></path>
                    <path d="M84.6165333,35.2938667 C75.2298667,35.2938667 67.1232,39.7141333 63.2490667,46.1482667 L105.915733,46.1482667 C102.0928,39.7141333 94.0032,35.2938667 84.6165333,35.2938667 Z" id="Path" fill="#FEFCFD"></path>
                    <path d="M121.173333,145.305673 L48.0256,145.305673 C35.7428316,145.334471 25.0936503,136.815126 22.4256,124.8256 L16.4864,77.9605333 C14.7505473,70.2090484 16.6302913,62.088731 21.5957747,55.8885151 C26.5612582,49.6882992 34.0746642,46.0799275 42.0181333,46.0799275 L127.214933,46.0799275 C135.162897,46.0613081 142.688424,49.6565172 147.668053,55.8511748 C152.647681,62.0458324 154.541426,70.1681977 152.814933,77.9264 L146.773333,124.8256 C144.105283,136.815126 133.456102,145.334471 121.173333,145.305673 L121.173333,145.305673 Z" id="Path" fill="#FEFCFD"></path>
                    <path d="M49.4933333,46.1653333 L56.1493333,52.9066667 C61.0657388,57.8214733 67.7320171,60.5837433 74.6837333,60.5866674 L94.4981333,60.5866674 C101.455764,60.588268 108.129012,57.8256537 113.0496,52.9066667 L119.876267,46.08 L49.4933333,46.1653333 Z" id="Path" fill="#F0E6E7"></path>
                    <path d="M97.28,153.378133 L72.0384,153.378133 C69.8989971,153.378133 67.847467,152.527097 66.3362824,151.012711 C64.8250978,149.498325 63.9784007,147.444998 63.9829152,145.3056 L105.250153,145.3056 C105.259751,149.728047 101.70221,153.331296 97.28,153.378133 L97.28,153.378133 Z" id="Path" fill="#CFC6C7"></path>
                    <path d="M97.28,159.419733 L72.0384,159.419733 C69.8989971,159.419733 67.847467,160.270769 66.3362824,161.785156 C64.8250978,163.299542 63.9784007,165.352869 63.9829152,167.492267 L105.250153,167.492267 C105.259751,163.069819 101.70221,159.466571 97.28,159.419733 Z" id="Path" fill="#FFFFFF"></path>
                    <rect id="Rectangle" fill="#2C3033" x="75.2128" y="153.378133" width="18.8074667" height="6.05866667"></rect>
                    <path d="M53.0773333,76.4416 C44.4545655,76.4416 37.4601288,83.4236237 37.444499,92.0463774 C37.4289216,100.669131 44.398044,107.676294 53.0207548,107.707736 C61.6434657,107.738966 68.6633325,100.782639 68.7106332,92.16 C68.7331127,87.9990875 67.0960945,84.0007985 64.1618604,81.0505478 C61.2276263,78.1002972 57.2383078,76.4416 53.0773333,76.4416 L53.0773333,76.4416 Z" id="Path" fill="#2C3033"></path>
                    <path d="M116.155733,76.4416 C107.532966,76.4416 100.538529,83.4236237 100.522899,92.0463774 C100.507322,100.669131 107.476444,107.676294 116.099155,107.707736 C124.721866,107.738966 131.741732,100.782639 131.788949,92.16 C131.806947,88.000467 130.168456,84.0048269 127.235211,81.0555703 C124.301965,78.1063136 120.315303,76.4460965 116.155733,76.4416 L116.155733,76.4416 Z" id="Path" fill="#2C3033"></path>
                    <path d="M56.4906667,82.2613333 C53.909813,82.26176 51.8135502,84.34593 51.7981074,86.9267379 C51.7828343,89.5075459 53.8541446,91.6165164 56.4348104,91.6476582 C59.0154762,91.6788001 61.1370754,89.620427 61.184,87.04 C61.2069032,85.7805318 60.7225579,84.5647241 59.8398925,83.6660103 C58.9572272,82.7672965 57.7503431,82.2611251 56.4906667,82.2613333 Z" id="Path" fill="#FEFCFD"></path>
                    <path d="M119.569067,82.2613045 C116.986013,82.2523676 114.881246,84.3323448 114.859608,86.9153232 C114.83797,89.4983016 116.907596,91.6132481 119.490437,91.6475577 C122.073278,91.6818673 124.198353,89.6226418 124.245333,87.04 C124.26819,85.7834859 123.786171,84.5702937 122.90721,83.6720855 C122.028249,82.7738774 120.825781,82.2656954 119.569067,82.2613045 Z" id="Path" fill="#FEFCFD"></path>
                    <path d="M84.6165333,135.048533 C72.0554667,135.048533 60.9962667,131.072 56.4736,124.910933 C55.5590001,123.691467 55.3644526,122.0767 55.9632416,120.6749 C56.5620307,119.2731 57.863186,118.297233 59.376575,118.1149 C60.8899639,117.932566 62.3856668,118.571467 63.3002667,119.790933 C65.7408,123.101867 73.8133333,126.446933 84.5653333,126.446933 C95.3173333,126.446933 103.338667,123.0336 105.8304,119.790933 C106.745,118.571467 108.240703,117.932566 109.754092,118.1149 C111.267481,118.297233 112.568636,119.2731 113.167425,120.6749 C113.766214,122.0767 113.571667,123.691467 112.657067,124.910933 C108.2368,131.072 97.1776,135.048533 84.6165333,135.048533 Z" id="Path" fill="#2C3033"></path>
                    <path d="M144.7936,239.633067 L24.4394667,239.633067 L24.4394667,190.242133 C24.4394667,177.677729 34.6249289,167.49226 47.1893333,167.49226 L122.026667,167.49226 C128.063263,167.487738 133.854166,169.882593 138.124285,174.149511 C142.394405,178.41643 144.7936,184.205535 144.7936,190.242133 L144.7936,239.633067 Z" id="Path" fill="#FFFFFF"></path>
                    <path d="M84.6165333,45.5338704 C83.5630559,45.5354174 82.5678882,45.0504307 81.92,44.2197333 L52.2752,6.0416 C51.1158439,4.55234576 51.3832791,2.40522281 52.8725333,1.24586667 C54.3617876,0.0865105198 56.5089105,0.353945763 57.6682667,1.8432 L84.6165333,36.5568 L111.5648,1.8432 C112.724156,0.35394585 114.871279,0.0865106585 116.360533,1.24586677 C117.849787,2.40522289 118.117223,4.55234576 116.957867,6.0416 L87.3130667,44.2197333 C86.6651785,45.0504307 85.6700108,45.5354174 84.6165333,45.5338704 L84.6165333,45.5338704 Z" id="Path" fill="#FEFCFD"></path>
                </g>
            </g>
        </g>
    </g>
</svg>
